<svg xmlns="http://www.w3.org/2000/svg" viewBox="0 0 1440 320"><path fill="#29e7cd" fill-opacity="0.9" d="M0,224L20,218.7C40,213,80,203,120,208C160,213,200,235,240,240C280,245,320,235,360,213.3C400,192,440,160,480,133.3C520,107,560,85,600,101.3C640,117,680,171,720,192C760,213,800,203,840,186.7C880,171,920,149,960,154.7C1000,160,1040,192,1080,197.3C1120,203,1160,181,1200,165.3C1240,149,1280,139,1320,117.3C1360,96,1400,64,1420,48L1440,32L1440,320L1420,320C1400,320,1360,320,1320,320C1280,320,1240,320,1200,320C1160,320,1120,320,1080,320C1040,320,1000,320,960,320C920,320,880,320,840,320C800,320,760,320,720,320C680,320,640,320,600,320C560,320,520,320,480,320C440,320,400,320,360,320C320,320,280,320,240,320C200,320,160,320,120,320C80,320,40,320,20,320L0,320Z"></path></svg>